<?xml version="1.0" encoding="UTF-8"?>
<!-- Created with Inkscape (http://www.inkscape.org/) -->
<svg width="194.47mm" height="19.181mm" version="1.1" viewBox="0 0 194.47 19.181" xmlns="http://www.w3.org/2000/svg" xmlns:cc="http://creativecommons.org/ns#" xmlns:dc="http://purl.org/dc/elements/1.1/" xmlns:osb="http://www.openswatchbook.org/uri/2009/osb" xmlns:rdf="http://www.w3.org/1999/02/22-rdf-syntax-ns#" xmlns:xlink="http://www.w3.org/1999/xlink">
 <metadata>
  <rdf:RDF>
   <cc:Work rdf:about="">
    <dc:format>image/svg+xml</dc:format>
    <dc:type rdf:resource="http://purl.org/dc/dcmitype/StillImage"/>
    <dc:title/>
   </cc:Work>
  </rdf:RDF>
 </metadata>
 <g transform="translate(-9.2755 -54.493)">
  <g>
   <text transform="scale(.82875 1.2066)" x="35.527946" y="58.709648" fill="#ffcc00" font-family="sans-serif" font-size="12.764px" letter-spacing="0px" stroke="#000000" stroke-width=".44021" word-spacing="0px" style="line-height:1.25" xml:space="preserve"><tspan x="35.527946" y="58.709648" fill="#ffcc00" font-family="Clarendon" stroke="#000000" stroke-width=".44021">Gold Star Senior Services</tspan></text>
   <path d="m25.281 73.295-5.9562-3.3764-5.9692 3.3532 1.3706-6.708-5.0337-4.6409 6.8032-0.76936 2.8582-6.2215 2.834 6.2325 6.8002 0.7958-5.0517 4.6213z" fill="#fc0" stroke="#000" stroke-width=".365"/>
   <path d="m199.62 73.319-5.9562-3.3764-5.9692 3.3532 1.3706-6.708-5.0337-4.6409 6.8032-0.76936 2.8582-6.2215 2.834 6.2325 6.8002 0.7958-5.0517 4.6213z" fill="#fc0" stroke="#000" stroke-width=".365"/>
  </g>
  <g stroke="#000" stroke-width=".26458px">
   <path d="m19.354 54.933v9.5176l-3.0862-3.0862z"/>
   <path d="m19.354 64.45-9.6615-2.5268 5.0337 4.6409z"/>
   <path d="m19.354 64.45-5.9984 8.8221 5.9692-3.3532z"/>
   <path d="m19.354 64.45 5.927 8.8453-1.3445-6.7133z"/>
   <path d="m19.354 64.45 9.6342-2.4893-6.8002-0.7958z"/>
  </g>
  <g transform="translate(174.34 .023174)">
   <g stroke="#000" stroke-width=".26458px">
    <path d="m19.354 54.933v9.5176l-3.0862-3.0862z"/>
    <path d="m19.354 64.45-9.6615-2.5268 5.0337 4.6409z"/>
    <path d="m19.354 64.45-5.9984 8.8221 5.9692-3.3532z"/>
    <path d="m19.354 64.45 5.927 8.8453-1.3445-6.7133z"/>
    <path d="m19.354 64.45 9.6342-2.4893-6.8002-0.7958z"/>
   </g>
  </g>
 </g>
</svg>
